<svg xmlns="http://www.w3.org/2000/svg" xmlns:xlink="http://www.w3.org/1999/xlink" width="314.315" height="68.315" viewBox="0 0 314.315 68.315">
  <defs>
    <clipPath id="clip-path">
      <rect id="Rectangle_727" data-name="Rectangle 727" width="314.315" height="68.315" fill="none"/>
    </clipPath>
    <clipPath id="clip-path-2">
      <rect id="Rectangle_750" data-name="Rectangle 750" width="112.898" height="66.548" fill="#0583a0"/>
    </clipPath>
  </defs>
  <g id="Logo" transform="translate(0 -0.001)">
    <g id="Group_2077" data-name="Group 2077" transform="translate(0 0.001)" clip-path="url(#clip-path)">
      <g id="Group_13744" data-name="Group 13744">
        <path id="Path_654" data-name="Path 654" d="M1737.436,728.969a.184.184,0,0,0-.208.208v13.116a.184.184,0,0,0,.208.208h17.181v3.917h-17.181a4.033,4.033,0,0,1-1.617-.327,4.06,4.06,0,0,1-2.181-2.181,4.03,4.03,0,0,1-.326-1.617V729.177a4.032,4.032,0,0,1,.326-1.617,4.06,4.06,0,0,1,2.181-2.181,4.043,4.043,0,0,1,1.617-.326h17.181v3.917Z" transform="translate(-1620.413 -704.307)" fill="#0583a0"/>
        <path id="Path_655" data-name="Path 655" d="M2241.012,725.052a4.042,4.042,0,0,1,1.617.326,4.336,4.336,0,0,1,1.321.875,4.077,4.077,0,0,1,1.217,2.923v17.241h-3.947v-7.181h-13.5v7.181H2223.8V729.177a4.028,4.028,0,0,1,.327-1.617,4.059,4.059,0,0,1,2.181-2.181,4.04,4.04,0,0,1,1.617-.326Zm.208,10.267v-6.143a.184.184,0,0,0-.208-.208h-13.087a.184.184,0,0,0-.208.208v6.143Z" transform="translate(-2086.451 -704.307)" fill="#0583a0"/>
        <path id="Path_656" data-name="Path 656" d="M2741.018,735.528a3.93,3.93,0,0,1-.327,1.6,4.243,4.243,0,0,1-.89,1.306,4.19,4.19,0,0,1-1.32.89,4.034,4.034,0,0,1-1.617.326h-1.157l5.138,6.114a.74.74,0,0,1-.566,1.215h-3.533l-6.172-7.33h-7v7.33h-3.917V725.647h17.211a4.044,4.044,0,0,1,1.617.326,4.168,4.168,0,0,1,2.21,2.211,3.965,3.965,0,0,1,.327,1.588Zm-4.154.208a.184.184,0,0,0,.208-.208v-5.757a.184.184,0,0,0-.208-.208h-13.086a.184.184,0,0,0-.208.208v5.757a.184.184,0,0,0,.208.208Z" transform="translate(-2557.584 -704.872)" fill="#0583a0"/>
        <path id="Path_657" data-name="Path 657" d="M3211.932,724.457h3.917v17.478h13.678a1.6,1.6,0,0,1,1.6,1.6v2.126a.186.186,0,0,1-.187.187h-19.012Z" transform="translate(-3025.323 -703.741)" fill="#0583a0"/>
        <text id="TECK_" data-name="TECK " transform="translate(201 42)" font-size="29" font-family="Orbitron" font-weight="600"><tspan x="0" y="0">TECK </tspan></text>
      </g>
      <g id="Group_13742" data-name="Group 13742">
        <g id="Group_13742-2" data-name="Group 13742" clip-path="url(#clip-path-2)">
          <path id="Path_717" data-name="Path 717" d="M70.445,0,52.672,16.475H34.239a16.8,16.8,0,0,0-3.087,33.311V66.478A33.273,33.273,0,0,1,33.272,0Z" fill="#0583a0"/>
          <path id="Path_718" data-name="Path 718" d="M133.407,0l-43.34,43.34v23.2h17.181V50.076l8.371-8.371,24.071,24.07h23.664L127.175,29.6,156.389.385Z" transform="translate(-50.454 -0.003)"/>
        </g>
      </g>
    </g>
  </g>
</svg>
