<svg id="Mission" xmlns="http://www.w3.org/2000/svg" xmlns:xlink="http://www.w3.org/1999/xlink" width="171.964" height="171.62" viewBox="0 0 171.964 171.62">
  <defs>
    <clipPath id="clip-path">
      <rect id="Rectangle_759" data-name="Rectangle 759" width="171.964" height="171.62" fill="none"/>
    </clipPath>
  </defs>
  <g id="Group_13770" data-name="Group 13770" clip-path="url(#clip-path)">
    <path id="Path_733" data-name="Path 733" d="M197.592,159.7a37.117,37.117,0,1,1-37.117-37.117A37.115,37.115,0,0,1,197.592,159.7" transform="translate(-68.523 -68.092)" fill="#1a1818"/>
    <path id="Path_734" data-name="Path 734" d="M106.87,26.081a80.013,80.013,0,1,0,80.013,80.013A80.014,80.014,0,0,0,106.87,26.081m0,136.022a56.009,56.009,0,1,1,56.009-56.009A56.008,56.008,0,0,1,106.87,162.1" transform="translate(-14.919 -14.488)" fill="#00718f"/>
    <path id="Path_735" data-name="Path 735" d="M136.866,80.081a56.009,56.009,0,1,0,56.009,56.009,56.008,56.008,0,0,0-56.009-56.009m0,93.126a37.117,37.117,0,1,1,37.117-37.117,37.115,37.115,0,0,1-37.117,37.117" transform="translate(-44.915 -44.484)" fill="#fff"/>
    <path id="Path_736" data-name="Path 736" d="M197.592,159.7a37.117,37.117,0,1,1-37.117-37.117A37.115,37.115,0,0,1,197.592,159.7" transform="translate(-68.523 -68.092)" fill="#1a1818"/>
    <path id="Path_737" data-name="Path 737" d="M197.592,159.7a37.117,37.117,0,1,1-37.117-37.117A37.115,37.115,0,0,1,197.592,159.7" transform="translate(-68.523 -68.092)" fill="#00718f"/>
    <path id="Path_738" data-name="Path 738" d="M93.469,101.355a7.843,7.843,0,0,1-5.58-2.311L46.333,57.488,35.554,62.532a8.508,8.508,0,0,1-3.638.81,8.6,8.6,0,0,1-6.121-2.54L8.547,43.555a8.593,8.593,0,0,1,3.5-14.307L23.576,25.7a3.217,3.217,0,0,0,2.133-2.13l3.548-11.526a8.593,8.593,0,0,1,14.307-3.5L60.811,25.789a8.662,8.662,0,0,1,1.732,9.757L57.494,46.32l41.56,41.56a7.893,7.893,0,0,1-5.584,13.475" transform="translate(-3.335 -3.333)" fill="#030404"/>
    <path id="Path_739" data-name="Path 739" d="M34.129,5.334a5.914,5.914,0,0,1,4.214,1.761L55.59,24.342a5.973,5.973,0,0,1,1.2,6.743L50.949,43.55,93.832,86.432a5.227,5.227,0,0,1-7.392,7.392L43.561,50.947,31.088,56.783a5.893,5.893,0,0,1-2.508.559,5.991,5.991,0,0,1-4.236-1.759L7.1,38.336a5.926,5.926,0,0,1,2.4-9.873l11.526-3.547a5.884,5.884,0,0,0,3.9-3.894L28.47,9.5a5.872,5.872,0,0,1,5.659-4.161m0-5.334h0A11.187,11.187,0,0,0,23.371,7.928L19.824,19.453a.552.552,0,0,1-.366.364L7.929,23.365a11.26,11.26,0,0,0-4.6,18.743L20.573,59.355a11.288,11.288,0,0,0,12.783,2.257l9.079-4.248L82.668,97.6A10.561,10.561,0,0,0,97.6,82.66L57.367,42.424l4.253-9.075A11.341,11.341,0,0,0,59.362,20.57L42.115,3.323A11.229,11.229,0,0,0,34.129,0" transform="translate(0)" fill="#fff"/>
  </g>
</svg>
